<svg width="22" height="19" viewBox="0 0 22 19" fill="none" xmlns="http://www.w3.org/2000/svg">
<path d="M20.5936 0.168423L1.02282 7.52413C-0.297911 7.99115 -0.297911 8.80846 0.782686 9.04197L5.70541 10.5598L7.62647 16.1642C7.8666 16.7479 7.74653 16.9815 8.34687 16.9815C8.82713 16.9815 9.06726 16.7479 9.3074 16.5144C9.42746 16.3977 10.5081 15.3469 11.7087 14.1793L16.7515 17.7988C17.712 18.2658 18.3124 18.0323 18.5525 16.9815L21.9144 1.68627C22.2746 0.401937 21.4341 -0.298605 20.5936 0.168423ZM18.0722 3.67114L8.70707 11.9609L8.34687 15.8139L6.4258 10.2095L17.4719 3.43762C17.9522 3.08735 18.4324 3.32087 18.0722 3.67114Z" fill="#004CFF"/>
</svg>
